# xmcd
#
# Track frame offsets:
#	150
#	13720
#	31393
#	50884
#	62848
#	75376
#	98883
#	116430
#	133347
#	152967
#	170417
#	178592
#	192519
#	216850
#	230965
#	251270
#	276006
#
# Disc length: 3922 seconds
# Revision: 0
# Processed by: cddbd v1.5.2PL0 Copyright (c) Steve Scherf et al.
# Submitted via: dBpowerAMP V12.0
#
DISCID=f60f5011
DTITLE=Various Artist - Twenty Thousand Roads
DYEAR=2014
DGENRE=Country Rock
TTITLE0=Emmlou Harris - Cash on the Barrelhead (Charlie Louvin/Ira Louvin) 
TTITLE1=I'll Be Your San Antonio Rose (Susanna Clark)
TTITLE2=Coat of Many Colors (Dolly Parton)
TTITLE3=Feeling Single, Seeing Double (Wayne Kemp)
TTITLE4=If I Could only Win Your Love (Charlie Louvin/Ira Louvin) 
TTITLE5=Too Far Gone (Billy Sherrill) 
TTITLE6=Amarillo (Rodney Crowell/Emmylou Harris) 
TTITLE7=Tonight the Bottle Let me Down ( Merle Haggard) 
TTITLE8=Tulsa Queen (Rodney Crowell/Emmylou Harris) 
TTITLE9=Bluebird Wine (Rodney Crowell) 
TTITLE10=Band Intros
TTITLE11=Wheels (Chris Hillman/Gram Parsons) 
TTITLE12=Till I Can Gain Control Again (Rodney Crowell) 
TTITLE13=Jambalaya (Hank Williams) 
TTITLE14=Ooh Las Vegas (Rick Grech/Gram Parsons) 
TTITLE15=Satan's Jewel Crown (Edgar Eden) 
TTITLE16=Forty Days (Chuck Berry) 
EXTD=
EXTT0=
EXTT1=
EXTT2=
EXTT3=
EXTT4=
EXTT5=
EXTT6=
EXTT7=
EXTT8=
EXTT9=
EXTT10=
EXTT11=
EXTT12=
EXTT13=
EXTT14=
EXTT15=
EXTT16=
PLAYORDER=
